<svg id="Component_3_2" data-name="Component 3 – 2" xmlns="http://www.w3.org/2000/svg" width="71" height="91" viewBox="0 0 71 91">
  <g id="Ellipse_6" data-name="Ellipse 6" stroke="#000" stroke-width="1">
    <ellipse cx="35.5" cy="45.5" rx="35.5" ry="45.5" stroke="none"/>
    <ellipse cx="35.5" cy="45.5" rx="35" ry="45" fill="none"/>
  </g>
  <g id="logo-s" transform="translate(2.479 5.482)">
    <g id="Path_33" data-name="Path 33" transform="translate(-874.68 305.57)" fill="#eec7c8">
      <path d="M 890.1838989257812 -233.8146667480469 L 904.1299438476562 -258.8844604492188 L 904.364990234375 -259.3070068359375 L 903.9505615234375 -259.5560913085938 L 875.6288452148438 -276.5790100097656 L 911.018798828125 -299.1867370605469 L 882.3939819335938 -276.9609985351562 L 881.8119506835938 -276.5090637207031 L 882.4469604492188 -276.1351928710938 L 911.5541381835938 -258.9980773925781 L 890.1838989257812 -233.8146667480469 Z" stroke="none"/>
      <path d="M 902.1085815429688 -292.9014282226562 L 876.577880859375 -276.5919494628906 L 905.0369873046875 -259.4864501953125 L 893.0929565429688 -238.015625 L 910.7885131835938 -258.8686218261719 L 880.9232788085938 -276.4520568847656 L 902.1085815429688 -292.9014282226562 M 919.928955078125 -305.4720153808594 L 882.7006225585938 -276.5660705566406 L 912.3197631835938 -259.1275329589844 L 887.2747802734375 -229.6137084960938 L 903.6929931640625 -259.1275329589844 L 874.6798095703125 -276.5660705566406 L 919.928955078125 -305.4720153808594 Z" stroke="none" fill="#eec7c8"/>
    </g>
    <g id="Path_35" data-name="Path 35" transform="translate(-860.278 305.57)" fill="#c5cce9" stroke-linecap="square">
      <path d="M 879.073974609375 -234.8939666748047 L 904.03857421875 -258.7662353515625 L 904.511962890625 -259.2189025878906 L 903.950439453125 -259.5562133789062 L 875.5045776367188 -276.6441345214844 L 901.079345703125 -300.6204223632812 L 882.308349609375 -276.8663024902344 L 881.9526977539062 -276.416259765625 L 882.447021484375 -276.1253662109375 L 911.4183349609375 -259.077880859375 L 879.073974609375 -234.8939666748047 Z" stroke="none"/>
      <path d="M 896.53076171875 -295.6707763671875 L 876.3292846679688 -276.7319946289062 L 905.3309326171875 -259.3102416992188 L 885.385009765625 -240.237060546875 L 910.516845703125 -259.0281982421875 L 881.2047729492188 -276.2762451171875 L 896.53076171875 -295.6707763671875 M 905.6279296875 -305.5700988769531 L 882.7006225585938 -276.5563049316406 L 912.3197631835938 -259.1275939941406 L 872.762939453125 -229.5509033203125 L 903.6929931640625 -259.1275939941406 L 874.6798095703125 -276.5563049316406 L 905.6279296875 -305.5700988769531 Z" stroke="none" fill="#c5cce9"/>
    </g>
    <g id="Path_36" data-name="Path 36" transform="translate(-846.278 304.613)" fill="#efe3ef" stroke-linecap="square">
      <path d="M 869.2708129882812 -235.1866149902344 L 903.9757080078125 -258.9773864746094 L 904.6177368164062 -259.4175109863281 L 903.9505004882812 -259.818359375 L 875.3682250976562 -276.9900817871094 L 889.8037719726562 -300.7262573242188 L 882.2243041992188 -276.9723510742188 L 882.1029052734375 -276.5919799804688 L 882.447021484375 -276.3894653320312 L 911.326171875 -259.3943481445312 L 877.270263671875 -239.7715606689453 L 869.2708129882812 -235.1866149902344 Z" stroke="none"/>
      <path d="M 888.0537109375 -296.8864135742188 L 876.056640625 -277.1597900390625 L 905.54248046875 -259.4452209472656 L 879.8721313476562 -241.8477783203125 L 910.3325805664062 -259.3988952636719 L 881.5051879882812 -276.3635559082031 L 888.0537109375 -296.8864135742188 M 891.5538330078125 -304.566162109375 L 882.7006225585938 -276.8203735351562 L 912.3197631835938 -259.3897705078125 L 877.5198974609375 -239.3383178710938 L 858.746337890625 -228.578125 L 903.6929931640625 -259.3897705078125 L 874.6798095703125 -276.8203735351562 L 891.5538330078125 -304.566162109375 Z" stroke="none" fill="#efe3ef"/>
    </g>
  </g>
</svg>
